<svg xmlns="http://www.w3.org/2000/svg" viewBox="0 0 64 64" id="piano">
  <rect width="60" height="40" x="2" y="12" fill="#953528" rx="4"></rect>
  <path fill="#c64635" d="M5 16.652A5.348 5.348 0 0 0 10.348 22H62v-6a4 4 0 0 0-4-4H6a3.977 3.977 0 0 0-1 .141Z"></path>
  <path fill="#4a4b4c" d="M5 14h8v2H5zM5 17h8v2H5zM5 20h8v2H5z"></path>
  <path fill="#2981bd" d="M22 15h20v7H22z"></path>
  <circle cx="48" cy="18" r="2" fill="#ffc239"></circle>
  <circle cx="56" cy="18" r="2" fill="#ffc239"></circle>
  <path fill="#ffebdc" d="M2 48a4 4 0 0 0 4 4h52a4 4 0 0 0 4-4V25H2Z"></path>
  <path fill="#fbe1ca" d="M31 38h2v14h-2zM39 38h2v14h-2zM47 38h2v14h-2zM55 38h2v14h-2zM7 38h2v14H7zM15 38h2v14h-2zM23 38h2v14h-2z"></path>
  <path fill="#5499c9" d="M24 17.424A2.576 2.576 0 0 0 26.576 20H42v-5H24Z"></path>
  <path fill="#5a5b5d" d="M14 25h4v13h-4z"></path>
  <path fill="#696a6c" d="M15 34.957A2.043 2.043 0 0 0 17.043 37H18V25h-3Z"></path>
  <path fill="#5a5b5d" d="M6 25h4v13H6z"></path>
  <path fill="#696a6c" d="M7 34.957A2.043 2.043 0 0 0 9.043 37H10V25H7Z"></path>
  <path fill="#5a5b5d" d="M22 25h4v13h-4z"></path>
  <path fill="#696a6c" d="M23 34.957A2.043 2.043 0 0 0 25.043 37H26V25h-3Z"></path>
  <path fill="#5a5b5d" d="M30 25h4v13h-4z"></path>
  <path fill="#696a6c" d="M31 34.957A2.043 2.043 0 0 0 33.043 37H34V25h-3Z"></path>
  <path fill="#5a5b5d" d="M38 25h4v13h-4z"></path>
  <path fill="#696a6c" d="M39 34.957A2.043 2.043 0 0 0 41.043 37H42V25h-3Z"></path>
  <path fill="#5a5b5d" d="M46 25h4v13h-4z"></path>
  <path fill="#696a6c" d="M47 34.957A2.043 2.043 0 0 0 49.043 37H50V25h-3Z"></path>
  <path fill="#5a5b5d" d="M54 25h4v13h-4z"></path>
  <path fill="#696a6c" d="M55 34.957A2.043 2.043 0 0 0 57.043 37H58V25h-3Z"></path>
  <path fill="#fff5ee" d="M9 52V38h1V25h4v13h1v14H9zM25 52V38h1V25h4v13h1v14h-6zM41 52V38h1V25h4v13h1v14h-6zM62 48V25h-4v13h-1v14h1a4 4 0 0 0 4-4Z"></path>
  <path d="M58 11H6a5.006 5.006 0 0 0-5 5v32a5.006 5.006 0 0 0 5 5h52a5.006 5.006 0 0 0 5-5V16a5.006 5.006 0 0 0-5-5ZM6 13h52a3 3 0 0 1 3 3v8H3v-8a3 3 0 0 1 3-3Zm3 13v11H7V26Zm1 13a1 1 0 0 0 1-1V26h2v12a1 1 0 0 0 1 1h1v12H9V39Zm5-2V26h2v11Zm2 2h1a1 1 0 0 0 1-1V26h2v12a1 1 0 0 0 1 1h1v12h-6Zm6-2V26h2v11Zm2 2h1a1 1 0 0 0 1-1V26h2v12a1 1 0 0 0 1 1h1v12h-6Zm6-2V26h2v11Zm2 2h1a1 1 0 0 0 1-1V26h2v12a1 1 0 0 0 1 1h1v12h-6Zm6-2V26h2v11Zm2 2h1a1 1 0 0 0 1-1V26h2v12a1 1 0 0 0 1 1h1v12h-6Zm6-2V26h2v11Zm2 2h1a1 1 0 0 0 1-1V26h2v12a1 1 0 0 0 1 1h1v12h-6Zm6-2V26h2v11ZM3 48V26h2v12a1 1 0 0 0 1 1h1v12H6a3 3 0 0 1-3-3Zm55 3h-1V39h1a1 1 0 0 0 1-1V26h2v22a3 3 0 0 1-3 3Z"></path>
  <path d="M5 14h8v2H5zM5 17h8v2H5zM5 20h8v2H5zM22 23h20a1 1 0 0 0 1-1v-7a1 1 0 0 0-1-1H22a1 1 0 0 0-1 1v7a1 1 0 0 0 1 1zm1-7h18v5H23zm25 5a3 3 0 1 0-3-3 3 3 0 0 0 3 3zm0-4a1 1 0 1 1-1 1 1 1 0 0 1 1-1zm8 4a3 3 0 1 0-3-3 3 3 0 0 0 3 3zm0-4a1 1 0 1 1-1 1 1 1 0 0 1 1-1z"></path>
</svg>
